<svg version="1" xmlns="http://www.w3.org/2000/svg" width="933.333" height="933.333" viewBox="0 0 700.000000 700.000000"><path d="M332.7 55.6c-.1.1-4.7.5-10.2.8-11.2.8-12.7 1-27.5 3.5-20.5 3.6-47.8 11.5-62 17.9-15.9 7.2-21.4 9.9-30.4 14.9-5.6 3.1-13.2 7.7-17.1 10.2-6.7 4.4-26.4 18.8-27.5 20-.3.3-4.1 3.7-8.4 7.6-26 22.9-48.4 50.8-61.2 76.1-4.9 9.7-5.1 10.4-4.4 15.6 1.7 12.2 9.4 19.1 21.2 19 9.1 0 14.1-3.8 20.7-15.6 23.6-42.4 63.2-79.5 109.1-102.1 21.3-10.6 46.1-18.5 68-22 5.8-.9 11.6-1.8 13-2.1 2.4-.4 15.7-1.1 35-1.8 9.7-.3 15.1-2.5 18.8-7.5 6.6-9 6.4-19-.4-27-5.1-5.9-9.7-7.3-24.2-7.5-6.8-.1-12.4-.1-12.5 0zM432 74.1c-8.4 3.4-14.1 12.3-13.3 21 .4 5.4 3.1 11.1 6.7 14.3 1.1 1 6.8 4.1 12.6 6.8 38.3 17.8 63.9 34.9 87.4 58.3 16.3 16.2 24.1 25.8 35.7 43.8 10.5 16.5 23.2 44.1 26.4 57.4.3 1 1.6 6 2.9 11 3.3 12.2 6 27.5 7.1 41.2 1.2 13.7.6 42.8-1 51.2-.2.9-.6 3.9-1 6.6-3.5 26.1-13.7 56.9-27 82.1-5.5 10.2-17.7 29.4-22.7 35.6-27.2 33.9-54.6 56.2-90.5 73.6-16.2 8-40.2 16.4-52.2 18.5-1.9.3-3.7.8-4.1 1-.5.3-12.9 2.5-22 3.9-15.5 2.4-51.3 2.4-63.2.1-1.3-.3-4.3-.8-6.8-1.1-45.2-6-100.1-32.9-135.4-66.4-13.5-12.8-19.4-19.4-30-33.5-15.4-20.4-27.3-42.8-35.1-65.8-5.3-15.9-7.1-23.2-11-45.2-2.9-16.6-2.6-62.4.5-76.8 2.6-12.3-1.3-22.9-10.2-27.5-8.2-4.2-15.6-3.5-23.2 2.3-4.4 3.4-7.3 9.5-8.1 17.5-.3 3.5-.8 6.7-1 7-2.6 4.2-2.6 75.6 0 80 .2.3.6 3 1 6 2.1 17.4 11.3 50.2 19 67.7 29 66 77.1 116.6 141.5 148.9 19.2 9.7 33.7 15.3 52.5 20.5 10.2 2.8 28.5 6.7 35.2 7.5 3.2.3 6 .8 6.3.9 2.9 1.8 43.3 2.5 60 1.2 35.5-2.8 71.4-12.7 104.5-28.7 17.2-8.4 37.8-20.8 48.6-29.4 1.4-1.2 4.3-3.5 6.5-5.1 14.9-11.5 34.9-31.6 48.7-49 30.2-38 52.5-90.1 59.7-139 .6-4.4 1.3-9.1 1.5-10.4 2.2-13.1 2.2-52.2.1-66.2-.2-1.3-.7-4.7-1-7.4-.8-6.7-1.4-9.7-3.1-18-.8-3.9-1.7-8.1-2-9.4-.2-1.3-1.6-6.5-3.1-11.5-9.7-33.3-25.9-65.8-46.4-93.1-10.4-13.8-11.4-14.9-27-30.5-29.8-30-60.1-50.4-102.6-69.4-8.5-3.8-16-4.6-21.4-2.5z"/><path d="M337.8 120.5c-.2.1-4.6.5-9.8.9-5.2.3-11.1.8-13 1.1-27.5 4.3-51.4 11.6-72 22-7.9 4-24.6 13.9-28.9 17.2-.9.7-5 3.8-9.2 7-16.7 12.7-33.2 29.7-46.7 48.2-12 16.3-14.5 24.7-10.1 33.8 6.2 12.8 23.3 15.9 33.4 5.9 1.2-1.1 4.8-5.9 8-10.6 22-32 52.6-56.6 87.5-70.3 10.6-4.2 26.9-8.7 37.3-10.3 7.6-1.2 9.9-1.4 18.7-2 12.1-.8 15.7-1.7 20.7-5.3 12.1-8.8 10.3-28-3.4-35-3.1-1.7-11.6-3.4-12.5-2.6z"/><path d="M325 186.7c-32.9 3.7-69.9 21.6-94.1 45.6-16.4 16.2-21.2 23.5-21.1 32.1.1 12 8.9 20.6 20.9 20.6 7.4 0 12.5-3.1 20.3-12.4 6.7-7.9 13.4-14.3 22.5-21.3 2.4-1.8 4.6-3.3 4.9-3.3.3 0 2.2-1.2 4.3-2.6 3.6-2.4 17.6-9.4 19.8-9.9.5-.1 4.8-1.3 9.5-2.8 4.7-1.4 10.5-2.9 13-3.2 11.1-1.5 16.5-4.3 20.6-10.5 3.2-4.8 4.3-12.9 2.5-18.3-3-8.9-13.1-15.1-23.1-14z"/></svg>